<?xml version="1.0" standalone="no"?>
<!DOCTYPE svg PUBLIC "-//W3C//DTD SVG 20010904//EN"
 "http://www.w3.org/TR/2001/REC-SVG-20010904/DTD/svg10.dtd">
<svg version="1.0" xmlns="http://www.w3.org/2000/svg"
 width="310.000000pt" height="310.000000pt" viewBox="0 0 310.000000 310.000000"
 preserveAspectRatio="xMidYMid meet">
<metadata>
Created by potrace 1.11, written by Peter Selinger 2001-2013
</metadata>
<g transform="translate(0.000000,310.000000) scale(0.100000,-0.100000)"
fill="#000000" stroke="none">
<path d="M1353 2960 c-17 -4 -48 -17 -67 -28 -20 -12 -68 -31 -106 -43 -40
-12 -70 -27 -70 -34 0 -15 36 -9 60 10 8 6 49 22 90 35 41 12 80 27 86 32 7 5
50 14 96 20 95 13 417 -1 440 -19 7 -6 31 -16 53 -23 22 -7 44 -16 48 -20 17
-15 -81 -20 -203 -10 -184 14 -344 12 -451 -6 -52 -9 -98 -20 -104 -24 -13 -9
-140 -50 -157 -50 -7 0 -34 -11 -60 -25 -26 -14 -56 -25 -67 -25 -11 0 -50
-20 -87 -45 -36 -25 -70 -45 -75 -45 -4 0 -28 -19 -52 -42 -25 -24 -60 -52
-78 -62 -19 -11 -40 -27 -47 -35 -12 -14 -13 -14 -8 2 8 25 -9 21 -43 -10 -16
-16 -48 -43 -71 -61 -22 -19 -53 -53 -67 -75 -14 -23 -30 -44 -34 -47 -12 -8
-99 -143 -99 -153 0 -5 -16 -33 -37 -64 -27 -41 -37 -67 -40 -106 -2 -38 -1
-47 6 -32 7 14 10 15 10 5 1 -20 -32 -113 -42 -121 -12 -8 -49 -178 -45 -203
2 -12 10 11 17 49 8 39 17 72 21 75 3 3 17 37 30 75 13 39 30 77 37 86 7 8 13
21 13 27 0 30 55 132 93 170 22 23 45 42 49 42 13 0 9 -28 -7 -43 -8 -9 -24
-41 -36 -74 -12 -32 -26 -59 -30 -61 -5 -2 -9 -12 -9 -21 0 -10 -9 -30 -21
-45 -11 -14 -16 -26 -11 -26 10 0 4 -59 -8 -75 -4 -5 -11 -28 -15 -50 -4 -22
-11 -45 -15 -50 -5 -6 -14 -82 -20 -170 -11 -168 0 -419 20 -439 5 -5 10 -35
10 -65 0 -31 7 -80 15 -108 8 -29 21 -75 29 -102 9 -34 10 -53 4 -59 -7 -7 -2
-26 17 -57 15 -26 25 -49 22 -52 -7 -6 -50 69 -78 137 -13 30 -28 64 -35 75
-6 11 -20 50 -29 87 -10 38 -22 68 -26 68 -5 0 -9 7 -9 16 0 9 -9 53 -19 98
-11 44 -22 131 -25 191 -3 79 -8 110 -17 110 -9 0 -12 -31 -10 -130 2 -132 6
-164 21 -200 5 -11 19 -56 31 -100 23 -86 36 -118 106 -263 47 -96 86 -152
107 -152 13 0 66 -77 66 -97 0 -7 11 -20 25 -29 14 -9 25 -21 25 -28 0 -14
105 -116 119 -116 5 0 18 -10 28 -23 21 -26 101 -78 88 -57 -5 8 -46 50 -92
94 -46 44 -83 86 -83 93 0 7 -6 13 -12 13 -15 0 -128 165 -128 186 0 8 -5 14
-11 14 -5 0 -7 5 -3 12 5 7 15 2 30 -17 13 -16 26 -26 29 -23 8 8 -1 24 -44
76 -33 39 -61 100 -61 134 0 9 -6 23 -13 30 -8 7 -17 26 -21 43 -8 32 -35 265
-36 304 0 40 15 12 34 -64 10 -38 21 -72 25 -75 4 -3 15 -34 25 -70 10 -36 27
-79 37 -96 10 -17 19 -38 19 -45 0 -8 20 -47 45 -87 25 -40 45 -77 45 -82 0
-5 9 -15 20 -22 11 -7 20 -17 20 -21 0 -11 79 -104 138 -162 23 -23 42 -47 42
-53 0 -6 6 -17 13 -24 7 -7 20 -26 30 -41 10 -15 29 -32 42 -37 12 -5 29 -18
37 -29 8 -12 41 -29 74 -40 32 -10 75 -28 94 -39 19 -11 64 -31 100 -43 36
-12 70 -25 75 -29 19 -14 178 -50 222 -50 24 0 43 -4 43 -10 0 -13 232 -14
245 -1 6 5 42 14 80 20 39 7 90 21 115 32 73 34 174 83 185 91 6 4 55 31 110
59 55 29 112 62 126 73 14 12 56 30 92 41 37 10 67 22 67 26 0 4 15 11 33 15
94 20 155 108 178 254 9 58 22 98 40 128 15 23 37 75 50 115 13 40 26 74 30
77 4 3 17 48 29 100 13 52 28 98 34 102 7 5 11 56 10 142 -1 99 3 136 12 140
6 2 15 23 19 45 7 40 25 67 25 37 0 -9 4 -16 10 -16 5 0 12 -11 16 -24 3 -14
18 -29 35 -36 20 -9 29 -19 29 -36 0 -15 6 -24 15 -24 9 0 15 9 15 23 0 12 7
35 15 51 16 30 21 131 6 140 -4 3 -11 38 -15 78 -8 86 -44 247 -59 266 -5 7
-18 50 -27 96 -18 87 -49 138 -157 265 -12 14 -34 41 -48 59 -29 34 -70 45
-58 15 4 -9 -16 6 -43 33 -44 43 -88 84 -239 219 -21 19 -42 35 -46 35 -4 0
-33 16 -65 35 -32 19 -64 35 -71 35 -8 0 -46 15 -86 34 -40 19 -92 40 -117 46
-25 7 -49 16 -55 20 -5 4 -41 17 -79 29 -61 19 -91 21 -290 20 -121 -1 -235
-4 -253 -9z m848 -250 c52 -28 117 -61 145 -74 49 -24 87 -53 189 -148 55 -51
57 -75 2 -34 -19 14 -39 26 -45 26 -7 0 -17 9 -24 20 -7 11 -16 20 -20 20 -4
0 -36 19 -71 43 -86 57 -115 73 -236 133 -104 52 -106 55 -45 63 6 0 53 -22
105 -49z m-320 -110 c30 -6 56 -15 57 -20 2 -6 12 -10 22 -10 18 0 111 -38
120 -49 10 -12 151 -111 158 -111 4 0 20 -12 35 -27 15 -16 46 -45 70 -65 89
-79 207 -200 207 -214 0 -5 12 -23 28 -40 33 -38 62 -87 62 -107 0 -9 5 -17
11 -19 29 -10 25 -120 -5 -140 -6 -4 -11 -40 -11 -85 1 -113 41 -166 100 -127
l25 16 0 -135 c0 -134 -15 -287 -29 -297 -4 -3 -13 -32 -20 -65 -8 -33 -20
-75 -29 -95 -39 -91 -88 -186 -99 -193 -7 -4 -13 -15 -13 -23 0 -8 -8 -18 -17
-21 -18 -7 -53 -39 -53 -49 0 -16 -99 -121 -174 -184 -44 -38 -92 -81 -106
-95 -14 -14 -30 -25 -34 -25 -5 0 -31 -14 -58 -30 -65 -40 -120 -59 -195 -67
-35 -3 -63 -9 -63 -13 0 -4 -51 -12 -112 -19 -121 -13 -394 -3 -407 16 -6 9
-48 22 -151 44 -30 6 -59 15 -65 19 -5 4 -43 17 -83 29 -87 26 -219 93 -239
121 -8 11 -19 20 -26 20 -15 0 -117 101 -117 117 0 7 -9 17 -20 23 -11 6 -23
23 -26 38 -4 15 -17 43 -29 62 -12 19 -35 73 -50 120 -15 47 -34 94 -40 105
-7 11 -23 52 -35 90 -13 39 -27 79 -31 90 -23 63 -39 172 -39 271 0 108 21
267 39 302 5 9 19 46 30 82 20 63 97 224 120 251 46 56 121 159 121 168 0 6 6
11 13 11 8 0 22 10 33 21 54 60 294 202 366 216 18 3 35 9 38 13 3 3 39 12 80
18 167 28 195 33 200 42 14 23 345 38 441 20z m713 -2012 c-31 -44 -43 -52
-94 -63 l-35 -7 40 40 c22 22 56 61 75 88 l35 48 3 -33 c2 -23 -5 -45 -24 -73z"/>
<path d="M885 1763 c-62 -17 -145 -107 -145 -157 0 -8 -6 -16 -12 -18 -18 -6
-18 -290 0 -295 6 -3 12 -11 12 -20 0 -30 36 -75 87 -109 45 -30 59 -34 117
-34 35 0 68 5 71 10 3 6 15 10 26 10 10 0 36 16 57 35 l39 34 22 -30 c12 -16
35 -32 52 -36 16 -3 29 -9 29 -14 0 -5 16 -9 35 -9 19 0 35 4 35 8 0 4 12 12
28 18 15 6 34 24 42 40 8 16 19 32 23 35 5 3 11 40 14 82 l6 75 32 6 c18 4 47
20 65 37 l32 31 -17 35 c-24 50 -15 121 19 158 14 15 26 31 26 34 0 14 76 34
127 33 62 0 100 -20 109 -57 3 -14 10 -25 15 -25 5 0 9 -11 9 -25 0 -14 -4
-25 -10 -25 -5 0 -10 -9 -10 -20 0 -29 -44 -70 -75 -70 l-25 0 0 95 0 95 -35
0 c-19 0 -35 -4 -35 -10 0 -5 -9 -10 -20 -10 -19 0 -20 -7 -20 -260 l0 -260
55 0 54 0 3 153 c3 150 3 152 26 155 34 5 72 -24 72 -53 0 -14 5 -25 10 -25 6
0 10 -9 10 -19 0 -11 -4 -23 -10 -26 -5 -3 -10 -39 -10 -80 0 -67 3 -77 27
-101 31 -32 94 -37 121 -10 9 9 11 16 5 16 -6 0 -19 7 -27 16 -13 12 -16 40
-16 136 l0 120 -35 35 -34 34 27 41 c33 51 36 130 5 154 -74 60 -96 68 -183
68 -66 1 -91 -3 -110 -16 -13 -10 -31 -18 -40 -18 -17 -1 -55 -32 -87 -74 -18
-22 -23 -42 -23 -86 0 -52 3 -61 30 -83 l29 -25 -31 -11 c-47 -17 -56 -14 -73
23 -9 18 -30 46 -46 62 -25 24 -38 29 -79 28 -54 -1 -113 -36 -126 -76 -3 -12
-13 -28 -20 -36 -14 -13 -17 -34 -19 -140 -2 -76 -23 -94 -117 -100 -69 -4
-76 -3 -106 23 -59 50 -67 75 -67 220 1 120 3 134 28 187 29 62 51 79 99 80
57 2 88 -69 53 -119 -14 -19 -13 -21 9 -27 47 -12 76 10 76 57 0 67 -61 126
-138 132 -26 2 -56 1 -67 -2z m457 -275 l21 -21 -21 -8 c-32 -12 -30 -57 3
-69 28 -11 32 -39 14 -105 -20 -73 -70 -95 -114 -50 -22 21 -25 33 -25 99 0
82 10 119 42 154 27 28 52 28 80 0z"/>
<path d="M2104 1553 c-82 -47 -103 -83 -111 -190 -9 -111 7 -155 72 -198 30
-19 62 -35 73 -35 21 0 66 21 99 47 24 20 53 114 53 174 0 33 3 37 30 43 39 7
90 45 90 66 0 28 -12 31 -35 10 -12 -12 -39 -23 -59 -27 -29 -5 -36 -3 -36 11
0 50 -69 116 -121 116 -14 0 -38 -8 -55 -17z m110 -67 c8 -14 8 -20 -1 -23
-18 -7 -16 -62 2 -69 16 -7 20 -65 9 -123 -8 -40 -44 -66 -79 -57 -45 11 -82
123 -56 174 5 9 14 35 21 57 7 22 17 46 23 53 15 18 68 11 81 -12z"/>
</g>
</svg>
